<?xml version="1.0" encoding="utf-8"?>
<!-- Generator: Adobe Illustrator 16.0.0, SVG Export Plug-In . SVG Version: 6.00 Build 0)  -->
<!DOCTYPE svg PUBLIC "-//W3C//DTD SVG 1.1//EN" "http://www.w3.org/Graphics/SVG/1.1/DTD/svg11.dtd">
<svg version="1.1" id="Layer_1" xmlns="http://www.w3.org/2000/svg" xmlns:xlink="http://www.w3.org/1999/xlink" x="0px" y="0px"
	 width="344px" height="177px" viewBox="0 0 344 177" enable-background="new 0 0 344 177" xml:space="preserve">
<path fill="#D3D3D3" d="M305.361,107.092c8.643-20.167,7.201-18.727,13.447-42.254c6.242-23.525-7.449-26.881-16.328-23.047
	c-28.816,15.374-11.527,67.704-6.723,81.625c-8.16,19.208-19.689-1.438-26.412-16.802c21.607-52.336,12.967-66.751,2.406-65.308
	c-35.06,4.816-19.211,64.824-12.49,81.153c-11.045,22.095-25.447-6.724-33.129-17.771c-7.205-1.924-4.324,12.966-4.803,16.33
	c-0.479,3.363-4.32,6.721-10.082,10.084c-10.084-3.84-16.328-23.047-4.806-31.693c11.524-8.643,15.847-2.398,15.847-2.398
	l5.28-0.963c-3.601-6.498-10.807-4.312-18.008-4.312c-7.205,0-33.615,16.564-18.728,38.896c14.883,22.325,27.131,5.282,33.854-4.56
	c16.326,26.89,28.81,12.598,36.729,0.354c16.928,24.85,28.09,12.965,36.375,1.439c20.525,32.051,39.977-5.762,39.977-5.762
	s0,0-2.52-1.439C322.645,144.434,312.084,121.018,305.361,107.092z M271.986,45.638c16.326,2.396-4.32,53.542-4.32,53.542
	C265.746,88.376,255.66,43.241,271.986,45.638z M309.199,45.403c15.602,3.843-5.521,53.536-5.521,53.536
	C299.6,85.487,295.996,44.198,309.199,45.403z M124.814,50.915c-11.045,0-14.405,4.799-17.767,11.525
	c-9.125-9.606-14.402-15.362-29.77-9.12C61.91,59.559,63.35,81.169,63.35,81.169S37.529,39.132,10.53,52.358
	C-13,63.88,9.567,112.379,14.371,121.504l1.44-4.8c0,0-16.324-37.459-9.121-51.38c7.203-13.922,27.368-7.688,33.611,10.082
	c6.242,17.771,9.127,24.969,22.57,84.993c9.121,9.123,16.324,16.329,18.245,11.047c-0.959-11.528-12.965-59.065-12.965-79.231
	c0-20.167,4.8-34.573,15.365-34.095c10.565,0.479,18.728,26.893,30.733,91.718c2.4,14.404,15.849,23.521,19.208,21.121
	c3.36-2.394,1.44-4.32,1.44-4.32s-7.686-74.431-25.45-100.839c3.362-6.239,19.69-19.688,36.495,14.408
	c13.924,27.368,13.924,62.896,15.846,72.025c1.921,9.128,19.207,31.21,21.125,20.169C184.838,161.36,178.113,50.915,124.814,50.915z
	 M288,21.837c3,2.913,6.883,4.364,10.76,4.364c3.643,0,7.23-1.292,9.777-3.883c2.551-2.582,4.07-5.654,4.07-9.215
	c0-3.64-1.15-6.732-3.697-9.279c-2.553-2.55-5.578-3.822-9.221-3.822c-3.68,0-7.629,1.356-10.256,4.063L285,0.666v41.742h3V21.837
	L288,21.837z M292.84,6.185c1.898-1.895,4.205-2.849,6.912-2.849c2.75,0,5.064,0.942,6.949,2.823
	c1.877,1.878,2.816,4.196,2.816,6.943c0,2.75-0.939,5.062-2.816,6.943c-1.885,1.878-4.199,2.823-6.949,2.823
	c-2.707,0-5.014-0.951-6.912-2.852c-1.9-1.901-2.855-4.202-2.855-6.915C289.984,10.396,290.939,8.09,292.84,6.185z M267.031,26.201
	c3.678,0,6.271-1.351,8.897-4.063L279,25.476V0.664l-3.071,3.399C273.301,1.356,270.426,0,266.748,0c-3.56,0-6.488,1.272-9.08,3.822
	c-2.588,2.547-3.811,5.64-3.811,9.279c0,3.562,1.33,6.633,3.918,9.215C260.364,24.909,263.474,26.201,267.031,26.201z
	 M260.084,6.159c1.885-1.881,4.197-2.823,6.947-2.823c2.709,0,5.016,0.954,6.91,2.849c1.904,1.904,2.855,4.211,2.855,6.917
	c0,2.712-0.951,5.014-2.855,6.915c-1.895,1.901-4.201,2.852-6.91,2.852c-2.75,0-5.062-0.945-6.947-2.823
	c-1.877-1.881-2.817-4.193-2.817-6.943C257.267,10.356,258.207,8.037,260.084,6.159z M340.85,3.824
	c-2.551-2.55-5.643-3.822-9.285-3.822c-3.68,0-7.566,1.356-10.191,4.063l-4.371-3.399v41.742h3V21.837
	c3,2.913,6.783,4.364,10.664,4.364c3.643,0,7.186-1.292,9.732-3.883c2.545-2.582,4.047-5.654,4.047-9.215
	C344.443,9.463,343.395,6.371,340.85,3.824z M338.514,20.046c-1.883,1.878-4.199,2.823-6.949,2.823
	c-2.707,0-5.014-0.951-6.912-2.852s-2.854-4.202-2.854-6.915c0-2.707,0.953-5.013,2.854-6.917c1.898-1.895,4.205-2.849,6.912-2.849
	c2.75,0,5.066,0.942,6.949,2.823c1.877,1.878,2.816,4.196,2.816,6.943C341.33,15.853,340.391,18.165,338.514,20.046z"/>
</svg>
